<svg version="1.1" id="Layer_1" xmlns="http://www.w3.org/2000/svg" xmlns:xlink="http://www.w3.org/1999/xlink" x="0px" y="0px"
	 width="100%" viewBox="0 0 298 262" enable-background="new 0 0 298 262" xml:space="preserve">

<path fill="#447EAE" opacity="1.000000" stroke="none" 
	d="
M174.953888,191.849991 
	C175.417404,191.286179 175.880920,190.722366 176.924088,189.934204 
	C177.972794,188.738373 178.441833,187.766891 178.910873,186.795425 
	C178.910873,186.795425 178.972382,186.401001 179.357620,186.072952 
	C181.184967,183.261200 182.199051,180.361130 184.141556,178.364182 
	C193.719040,168.518173 203.512589,158.880981 213.313614,149.255356 
	C214.680115,147.913330 216.510422,147.043549 218.126007,145.955154 
	C220.745224,149.735947 223.364441,153.516739 225.555054,157.661591 
	C223.045685,159.222504 220.574600,160.032104 218.944183,161.675659 
	C201.408249,179.353012 184.008682,197.165604 166.561539,214.931122 
	C163.651993,217.893753 160.569626,220.698044 157.813522,223.794815 
	C156.565475,225.197083 155.920410,227.136002 155.001801,228.831482 
	C150.626984,228.544312 146.252167,228.257141 141.450256,227.545425 
	C142.101364,225.161621 142.824707,222.862518 144.319290,221.302063 
	C150.738754,214.599701 157.481613,208.206650 163.884979,201.489594 
	C165.626114,199.663147 166.592712,197.098358 167.914795,194.872437 
	C167.914795,194.872437 167.961990,194.944916 168.210144,194.889313 
	C168.973831,194.581039 169.489334,194.328369 170.004852,194.075699 
	C170.004852,194.075699 170.412094,193.969635 170.923615,193.889465 
	C171.955307,193.489288 172.475479,193.169266 172.995667,192.849258 
	C172.995667,192.849258 172.966934,192.941391 173.214905,192.868195 
	C173.959900,192.480011 174.456894,192.165009 174.953888,191.849991 
z"/>
<path fill="#4477B7" opacity="1.000000" stroke="none" 
	d="
M155.429382,228.897156 
	C155.920410,227.136002 156.565475,225.197083 157.813522,223.794815 
	C160.569626,220.698044 163.651993,217.893753 166.561539,214.931122 
	C184.008682,197.165604 201.408249,179.353012 218.944183,161.675659 
	C220.574600,160.032104 223.045685,159.222504 225.494644,158.019974 
	C225.862854,158.014282 226.009430,158.440857 226.067963,159.057373 
	C229.763626,167.514465 226.317780,172.714691 220.557343,178.185898 
	C205.960327,192.050034 191.906967,206.490097 177.771484,220.833099 
	C175.491547,223.146515 173.907684,226.145920 172.002045,228.828217 
	C166.620361,228.873093 161.238663,228.917953 155.429382,228.897156 
z"/>
<path fill="#4572BF" opacity="1.000000" stroke="none" 
	d="
M172.414032,228.893524 
	C173.907684,226.145920 175.491547,223.146515 177.771484,220.833099 
	C191.906967,206.490097 205.960327,192.050034 220.557343,178.185898 
	C226.317780,172.714691 229.763626,167.514465 226.122040,159.276306 
	C227.756302,163.850952 230.633713,168.777542 230.818710,173.803253 
	C231.607269,195.225983 219.917419,209.244476 202.266251,219.453201 
	C193.092819,224.758728 183.200592,227.530075 172.414032,228.893524 
z"/>
<path fill="#ED303D" opacity="1.000000" stroke="none" 
	d="
M135.050110,77.139130 
	C133.076004,82.639229 132.956757,88.023392 136.239288,93.750900 
	C136.588181,94.514778 136.799484,94.669807 137.058136,94.760384 
	C137.338470,94.964592 137.618790,95.168800 137.966492,96.092804 
	C138.019882,105.570816 138.005905,114.329041 137.659317,123.076981 
	C136.883163,123.072044 136.439636,123.077377 135.682465,122.910126 
	C131.925323,121.439590 128.481796,120.141632 124.851517,118.600906 
	C123.388535,117.300842 122.112305,116.243561 121.070206,114.816895 
	C121.536346,112.491905 122.008698,110.530273 121.959846,108.581718 
	C121.714951,98.814667 121.375122,89.049400 120.986595,79.286758 
	C120.696968,72.009201 120.589882,64.700699 119.746964,57.482407 
	C119.473351,55.139320 117.128563,53.038090 115.949646,50.562801 
	C118.810989,48.596375 121.453819,46.893379 124.494278,45.155777 
	C127.211678,44.710381 129.531464,44.299591 132.203827,44.040024 
	C133.370850,46.547722 134.651688,48.853500 134.914352,51.269943 
	C135.783310,59.264481 136.284943,67.298950 136.927551,75.318092 
	C136.927551,75.318092 136.830795,75.678986 136.384277,75.779358 
	C135.641861,76.299530 135.345978,76.719330 135.050110,77.139130 
z"/>
<path fill="#F26438" opacity="1.000000" stroke="none" 
	d="
M219.041840,105.127922 
	C215.610596,109.595940 212.179352,114.063957 208.748108,118.531982 
	C208.188950,118.416527 207.629791,118.301079 207.070633,118.185631 
	C208.153198,107.584328 203.900452,98.885368 198.568527,90.269600 
	C199.605530,88.000359 200.917099,86.148712 200.902512,84.307587 
	C200.803635,71.836052 200.424606,59.366734 200.136139,46.896702 
	C205.857147,49.851315 211.578140,52.805927 217.624695,56.392811 
	C218.305893,70.294075 218.584793,83.566002 219.092377,96.829185 
	C219.177475,99.053024 220.253433,101.238930 220.871552,103.442368 
	C220.871552,103.442368 220.830856,103.696228 220.433441,103.788750 
	C219.704620,104.296822 219.373230,104.712372 219.041840,105.127922 
z"/>
<path fill="#F15737" opacity="1.000000" stroke="none" 
	d="
M200.101196,46.893097 
	C200.424606,59.366734 200.803635,71.836052 200.902512,84.307587 
	C200.917099,86.148712 199.605530,88.000359 198.533600,89.920700 
	C192.838562,85.909424 187.517441,81.824577 182.067841,76.945068 
	C181.620117,64.771126 181.300858,53.391857 181.257278,41.956436 
	C182.028320,41.648228 182.523682,41.396168 183.019043,41.144112 
	C186.120438,42.023773 189.221848,42.903435 192.929871,44.183868 
	C195.068054,45.008423 196.599579,45.432205 198.131119,45.855988 
	C198.131119,45.855988 198.558838,45.957401 198.922577,46.201241 
	C199.521408,46.655113 199.781891,46.826637 200.067719,46.959652 
	C200.067719,46.959652 200.066269,46.889496 200.101196,46.893097 
z"/>
<path fill="#F58145" opacity="1.000000" stroke="none" 
	d="
M85.929451,59.852669 
	C87.705887,57.969593 89.482323,56.086517 91.915421,54.094414 
	C93.051071,53.989681 93.530052,53.993980 94.216110,54.353973 
	C94.615555,56.486298 94.766235,58.268631 95.008408,60.038445 
	C95.645485,64.694160 96.322365,69.344429 96.982216,74.414757 
	C96.933586,78.883904 96.886131,82.935165 96.516708,87.188713 
	C95.796478,89.424332 95.142502,91.445328 95.043648,93.493111 
	C94.582977,103.036392 94.275734,112.587074 93.913612,122.135101 
	C90.599556,119.377228 87.285500,116.619347 83.895172,113.078407 
	C83.850159,95.496460 83.881416,78.697586 83.912682,61.898705 
	C83.912682,61.898705 83.965240,61.981819 84.227554,61.864037 
	C84.969734,61.115059 85.449593,60.483864 85.929451,59.852669 
z"/>
<path fill="#F37038" opacity="1.000000" stroke="none" 
	d="
M221.127960,103.256866 
	C220.253433,101.238930 219.177475,99.053024 219.092377,96.829185 
	C218.584793,83.566002 218.305893,70.294075 217.932037,56.563171 
	C227.148621,61.279167 234.584045,68.397858 239.919403,77.492836 
	C240.619095,78.685585 239.445053,81.688202 238.267136,83.150230 
	C232.807861,89.926216 227.041046,96.454422 221.127960,103.256866 
z"/>
<path fill="#F36B59" opacity="1.000000" stroke="none" 
	d="
M125.038261,118.843681 
	C128.481796,120.141632 131.925323,121.439590 135.682312,123.369865 
	C135.997696,130.453903 135.836777,136.912292 136.100937,143.353256 
	C136.180023,145.281189 137.446579,147.160416 138.169113,149.061966 
	C131.362717,156.297928 124.556320,163.533890 117.190979,170.784393 
	C116.140167,170.532639 115.648293,170.266327 115.156418,170.000015 
	C118.083099,158.628677 121.009789,147.257339 124.130714,135.124451 
	C124.562729,129.189819 124.800491,124.016747 125.038261,118.843681 
z"/>
<path fill="#55BD7A" opacity="1.000000" stroke="none" 
	d="
M64.092606,191.962875 
	C62.049007,183.841476 59.541313,175.802094 58.087967,167.576401 
	C56.529774,158.757278 55.853367,149.772949 55.040268,140.838120 
	C54.832207,138.551788 55.560635,136.180252 56.675095,133.806259 
	C62.777576,146.731583 69.497398,158.719025 79.679176,168.606415 
	C76.534531,171.578751 73.657677,174.225983 70.697289,176.776245 
	C66.308914,180.556686 61.623943,184.160934 64.510040,191.086197 
	C64.593208,191.285782 64.241524,191.666580 64.092606,191.962875 
z"/>
<path fill="#F04B39" opacity="1.000000" stroke="none" 
	d="
M180.981598,42.012585 
	C181.300858,53.391857 181.620117,64.771126 181.914581,76.621773 
	C181.889816,77.093147 181.451508,76.995026 181.195526,76.755844 
	C180.595428,76.382965 180.251328,76.249252 179.907211,76.115555 
	C173.511017,73.819901 167.114822,71.524246 160.692352,68.857727 
	C164.189133,68.066887 165.245117,65.997986 165.041016,62.618336 
	C164.571060,54.836342 164.332535,47.040367 164.403381,39.209938 
	C165.886490,39.186939 166.966339,39.204067 168.355408,39.403252 
	C172.770309,40.394402 176.875961,41.203491 180.981598,42.012585 
z"/>
<path fill="#4787A7" opacity="1.000000" stroke="none" 
	d="
M217.981842,145.637405 
	C216.510422,147.043549 214.680115,147.913330 213.313614,149.255356 
	C203.512589,158.880981 193.719040,168.518173 184.141556,178.364182 
	C182.199051,180.361130 181.184967,183.261200 179.424194,185.884796 
	C179.400803,183.623718 179.696075,181.222748 180.198959,178.129822 
	C180.352386,176.478775 180.647797,175.283020 180.185532,174.600204 
	C177.739349,170.987015 178.829239,168.464020 181.772949,165.572510 
	C188.524384,158.940765 194.806702,151.833832 201.476364,145.115280 
	C204.135651,142.436508 207.314651,140.273666 210.257050,137.875946 
	C210.257050,137.875946 210.613861,137.916077 210.873901,138.246460 
	C211.485428,138.997849 211.836914,139.418884 212.188400,139.839905 
	C214.071487,141.666489 215.954575,143.493073 217.981842,145.637405 
z"/>
<path fill="#499D90" opacity="1.000000" stroke="none" 
	d="
M101.903137,214.207352 
	C99.455070,213.106277 97.007004,212.005188 93.704819,210.519958 
	C94.151970,214.961197 94.562386,219.037491 94.582397,223.576965 
	C90.649834,225.857910 87.231224,229.064743 83.167709,225.020660 
	C81.861687,223.597092 80.555664,222.173523 79.141624,220.091965 
	C79.617401,218.466888 80.051758,217.359085 80.808792,216.555130 
	C86.492149,210.519592 92.060951,204.358643 98.031441,198.617401 
	C101.758507,195.033447 106.121712,192.111023 110.199440,188.891754 
	C112.911461,189.852417 115.623482,190.813080 118.638657,192.290527 
	C114.596535,197.736404 110.155388,202.585770 105.954185,207.634796 
	C104.324554,209.593262 103.237404,212.003113 101.903137,214.207352 
z"/>
<path fill="#488EA0" opacity="1.000000" stroke="none" 
	d="
M210.097595,137.566040 
	C207.314651,140.273666 204.135651,142.436508 201.476364,145.115280 
	C194.806702,151.833832 188.524384,158.940765 181.772949,165.572510 
	C178.829239,168.464020 177.739349,170.987015 180.185532,174.600204 
	C180.647797,175.283020 180.352386,176.478775 180.229919,177.711395 
	C178.058685,171.361404 173.759262,166.526932 168.341644,162.220917 
	C169.086487,161.438263 169.779144,161.234482 170.233963,160.788284 
	C179.334442,151.860031 188.452484,142.948242 197.409332,133.877457 
	C198.212952,133.063644 197.937622,131.184418 198.163391,129.800003 
	C202.088303,132.285370 206.013229,134.770752 210.097595,137.566040 
z"/>
<path fill="#4AA48A" opacity="1.000000" stroke="none" 
	d="
M110.017899,188.579269 
	C106.121712,192.111023 101.758507,195.033447 98.031441,198.617401 
	C92.060951,204.358643 86.492149,210.519592 80.808792,216.555130 
	C80.051758,217.359085 79.617401,218.466888 78.986435,219.791794 
	C77.350967,218.032990 75.762680,215.916367 74.019745,213.119110 
	C74.130493,210.256073 73.577911,207.291397 74.794830,206.018921 
	C82.355209,198.113388 90.312454,190.587387 98.138031,182.935471 
	C102.037468,184.712585 105.936913,186.489685 110.017899,188.579269 
z"/>
<path fill="#478CA1" opacity="1.000000" stroke="none" 
	d="
M128.023727,224.885178 
	C123.600571,223.254898 119.177422,221.624619 114.389114,219.561035 
	C114.524361,217.764847 114.664139,216.056351 115.584541,215.096024 
	C120.970589,209.476395 126.475792,203.965179 132.110031,198.594940 
	C133.029236,197.718811 134.798676,197.361237 136.161133,197.391663 
	C140.782242,197.494843 145.397095,197.879669 149.980469,198.505615 
	C148.529160,200.838028 147.254974,202.945404 145.668579,204.783295 
	C139.843063,211.532349 133.913895,218.191925 128.023727,224.885178 
z"/>
<path fill="#479499" opacity="1.000000" stroke="none" 
	d="
M197.975891,129.500641 
	C197.937622,131.184418 198.212952,133.063644 197.409332,133.877457 
	C188.452484,142.948242 179.334442,151.860031 170.233963,160.788284 
	C169.779144,161.234482 169.086487,161.438263 168.193695,161.908600 
	C165.490311,161.036041 163.097824,160.009796 160.380051,158.554413 
	C160.762039,156.859161 161.226761,155.350037 162.214172,154.364655 
	C171.786087,144.812454 181.445648,135.348083 191.080200,125.858650 
	C193.316269,126.972862 195.552322,128.087067 197.975891,129.500641 
z"/>
<path fill="#4F9E96" opacity="1.000000" stroke="none" 
	d="
M190.877380,125.546661 
	C181.445648,135.348083 171.786087,144.812454 162.214172,154.364655 
	C161.226761,155.350037 160.762039,156.859161 160.022308,158.472534 
	C156.429642,158.081146 152.869431,157.342529 148.145187,156.362396 
	C152.975021,150.793671 156.863617,146.047134 161.038544,141.567444 
	C165.598114,136.675018 170.607834,132.195953 175.074768,127.225266 
	C178.825562,123.051483 182.561584,120.606575 187.964828,124.266685 
	C188.733810,124.787575 189.764816,124.921600 190.877380,125.546661 
z"/>
<path fill="#EE3A3D" opacity="1.000000" stroke="none" 
	d="
M137.204010,75.173775 
	C136.284943,67.298950 135.783310,59.264481 134.914352,51.269943 
	C134.651688,48.853500 133.370850,46.547722 132.466522,43.771744 
	C135.908997,42.552959 139.441376,41.753681 143.357056,40.946480 
	C145.491913,40.648655 147.243454,40.358753 148.996765,40.502350 
	C149.332367,50.234890 149.666183,59.533932 149.999985,68.832977 
	C145.826813,70.898468 141.653641,72.963966 137.204010,75.173775 
z"/>
<path fill="#4BAC83" opacity="1.000000" stroke="none" 
	d="
M97.999077,182.617828 
	C90.312454,190.587387 82.355209,198.113388 74.794830,206.018921 
	C73.577911,207.291397 74.130493,210.256073 73.853027,212.820526 
	C71.557770,208.115463 69.274582,203.028397 67.017273,197.181366 
	C73.114990,190.167221 79.130920,183.856461 85.329559,177.730576 
	C86.102547,176.966660 87.843086,177.181778 89.135307,176.943253 
	C92.043579,178.728897 94.951843,180.514542 97.999077,182.617828 
z"/>
<path fill="#4584A9" opacity="1.000000" stroke="none" 
	d="
M128.424637,224.932404 
	C133.913895,218.191925 139.843063,211.532349 145.668579,204.783295 
	C147.254974,202.945404 148.529160,200.838028 150.393890,198.466339 
	C152.224792,198.032562 153.608398,197.986786 155.330872,197.928543 
	C156.473495,197.556198 157.277283,197.196320 158.081070,196.836441 
	C158.470230,196.876251 158.859390,196.916046 159.886887,196.933105 
	C161.349411,196.556595 162.173599,196.202835 162.997787,195.849060 
	C162.997787,195.849060 162.951889,195.928757 163.237549,195.927948 
	C163.740189,195.927094 163.957138,195.927032 164.174088,195.927002 
	C165.198914,195.595078 166.223740,195.263168 167.581680,194.901840 
	C166.592712,197.098358 165.626114,199.663147 163.884979,201.489594 
	C157.481613,208.206650 150.738754,214.599701 144.319290,221.302063 
	C142.824707,222.862518 142.101364,225.161621 141.015335,227.488617 
	C136.946838,226.897430 132.886200,225.938522 128.424637,224.932404 
z"/>
<path fill="#EF413A" opacity="1.000000" stroke="none" 
	d="
M150.450333,68.903831 
	C149.666183,59.533932 149.332367,50.234890 149.440582,40.481247 
	C152.928802,39.698345 155.974991,39.370049 159.435913,39.040943 
	C161.233826,39.110115 162.616959,39.180092 164.000107,39.250069 
	C164.332535,47.040367 164.571060,54.836342 165.041016,62.618336 
	C165.245117,65.997986 164.189133,68.066887 160.344666,68.667671 
	C156.982407,68.890549 153.941544,68.932617 150.450333,68.903831 
z"/>
<path fill="#499699" opacity="1.000000" stroke="none" 
	d="
M154.992020,197.941010 
	C153.608398,197.986786 152.224792,198.032562 150.427750,198.117615 
	C145.397095,197.879669 140.782242,197.494843 136.161133,197.391663 
	C134.798676,197.361237 133.029236,197.718811 132.110031,198.594940 
	C126.475792,203.965179 120.970589,209.476395 115.584541,215.096024 
	C114.664139,216.056351 114.524361,217.764847 114.015656,219.495926 
	C110.099167,218.179520 106.190971,216.494904 102.092957,214.508820 
	C103.237404,212.003113 104.324554,209.593262 105.954185,207.634796 
	C110.155388,202.585770 114.596535,197.736404 118.973587,192.455399 
	C126.599152,193.521118 134.165588,195.117905 141.797882,196.283417 
	C145.829422,196.899063 149.975708,196.763397 154.531128,197.243362 
	C154.992081,197.519775 154.992020,197.941010 154.992020,197.941010 
z"/>
<path fill="#EE3A3D" opacity="1.000000" stroke="none" 
	d="
M137.991928,123.087257 
	C138.005905,114.329041 138.019882,105.570816 138.061966,96.337143 
	C141.827881,99.161209 145.565689,102.460747 149.778397,106.105988 
	C150.521393,106.653236 150.818359,106.793724 151.144180,106.873138 
	C151.144180,106.873138 151.508759,106.959007 151.848862,107.213524 
	C152.441803,107.692429 152.730530,107.851761 153.055161,107.946037 
	C153.055161,107.946037 153.015625,108.002937 153.228638,108.181458 
	C153.985107,108.554482 154.528580,108.748985 155.072037,108.943497 
	C155.072037,108.943497 155.003769,108.954712 155.149078,109.329636 
	C155.821899,115.688576 156.349426,121.672592 156.491577,127.635460 
	C150.068115,126.105301 144.030029,124.596283 137.991928,123.087257 
z"/>
<path fill="#F68D49" opacity="1.000000" stroke="none" 
	d="
M83.596725,62.035019 
	C83.881416,78.697586 83.850159,95.496460 83.888039,112.715378 
	C68.995903,99.533867 71.789230,72.785225 83.596725,62.035019 
z"/>
<path fill="#F47A49" opacity="1.000000" stroke="none" 
	d="
M94.060776,122.453629 
	C94.275734,112.587074 94.582977,103.036392 95.043648,93.493111 
	C95.142502,91.445328 95.796478,89.424332 96.637650,87.543671 
	C99.711525,92.835159 102.342476,97.973991 104.977875,103.574348 
	C104.655373,111.970543 104.328430,119.905197 104.001495,127.839859 
	C100.736969,126.150620 97.472450,124.461380 94.060776,122.453629 
z"/>
<path fill="#F1605E" opacity="1.000000" stroke="none" 
	d="
M137.659317,123.076981 
	C144.030029,124.596283 150.068115,126.105301 156.734741,127.701195 
	C157.527725,127.817307 157.692184,127.846535 157.856628,127.875755 
	C152.906937,133.091995 147.925903,138.279068 143.026077,143.541733 
	C141.500412,145.180359 140.194489,147.023590 138.478546,148.917557 
	C137.446579,147.160416 136.180023,145.281189 136.100937,143.353256 
	C135.836777,136.912292 135.997696,130.453903 135.995941,123.542450 
	C136.439636,123.077377 136.883163,123.072044 137.659317,123.076981 
z"/>
<path fill="#51B67E" opacity="1.000000" stroke="none" 
	d="
M89.002449,176.627197 
	C87.843086,177.181778 86.102547,176.966660 85.329559,177.730576 
	C79.130920,183.856461 73.114990,190.167221 66.996353,196.778229 
	C65.960976,195.647369 64.972420,194.159714 64.038231,192.317474 
	C64.241524,191.666580 64.593208,191.285782 64.510040,191.086197 
	C61.623943,184.160934 66.308914,180.556686 70.697289,176.776245 
	C73.657677,174.225983 76.534531,171.578751 79.817093,168.913757 
	C80.185425,168.852631 80.139801,168.969086 80.255890,169.118011 
	C80.611954,169.488144 80.876472,169.674484 81.165535,169.825974 
	C83.733559,171.987686 86.301575,174.149399 89.002449,176.627197 
z"/>
<path fill="#F4794B" opacity="1.000000" stroke="none" 
	d="
M96.983398,73.996872 
	C96.322365,69.344429 95.645485,64.694160 95.008408,60.038445 
	C94.766235,58.268631 94.615555,56.486298 94.204910,54.069855 
	C93.974945,53.240799 93.963242,53.051567 93.951538,52.862335 
	C98.024406,48.173008 103.297821,45.543865 109.436279,44.309875 
	C109.443253,48.048645 109.206459,51.458378 108.792953,55.158447 
	C104.738625,61.631481 100.861008,67.814178 96.983398,73.996872 
z"/>
<path fill="#F4734D" opacity="1.000000" stroke="none" 
	d="
M104.329567,128.000427 
	C104.328430,119.905197 104.655373,111.970543 105.260971,103.737625 
	C109.028923,106.618645 112.518211,109.797920 115.918510,113.386711 
	C115.520866,119.894646 115.212212,125.993073 114.903557,132.091492 
	C111.488251,130.781326 108.072945,129.471161 104.329567,128.000427 
z"/>
<path fill="#F36C51" opacity="1.000000" stroke="none" 
	d="
M114.925339,132.066620 
	C115.212212,125.993073 115.520866,119.894646 116.215462,113.539894 
	C118.012962,113.917801 119.424522,114.552040 120.836082,115.186279 
	C122.112305,116.243561 123.388535,117.300842 124.851517,118.600906 
	C124.800491,124.016747 124.562729,129.189819 124.093002,134.711212 
	C122.479095,134.706131 121.097130,134.352737 119.195168,133.622162 
	C117.416580,132.858063 116.157997,132.471146 114.899414,132.084213 
	C114.899414,132.084213 114.947128,132.041763 114.925339,132.066620 
z"/>
<path fill="#F04B44" opacity="1.000000" stroke="none" 
	d="
M158.054901,127.587921 
	C157.692184,127.846535 157.527725,127.817307 157.120117,127.722336 
	C156.349426,121.672592 155.821899,115.688576 155.170120,109.302185 
	C160.061035,110.696732 165.076187,112.493660 171.180679,114.680885 
	C166.438431,119.310051 162.345810,123.305069 158.054901,127.587921 
z"/>
<path fill="#F47050" opacity="1.000000" stroke="none" 
	d="
M108.969673,54.868111 
	C109.206459,51.458378 109.443253,48.048645 109.814987,44.248169 
	C114.338562,42.563995 118.727188,41.270569 123.546112,40.368443 
	C124.016495,42.236622 124.056572,43.713501 124.096649,45.190380 
	C121.453819,46.893379 118.810989,48.596375 115.643349,50.669159 
	C113.068916,52.315331 111.019295,53.591721 108.969673,54.868111 
z"/>
<path fill="#5BA09E" opacity="1.000000" stroke="none" 
	d="
M83.086731,225.376740 
	C87.231224,229.064743 90.649834,225.857910 94.540756,224.001785 
	C96.090332,228.535904 97.823074,233.054504 97.091759,237.822815 
	C96.587982,238.090759 96.084206,238.358704 95.580429,238.626663 
	C91.388870,234.328705 87.197319,230.030762 83.086731,225.376740 
z"/>
<path fill="#F26556" opacity="1.000000" stroke="none" 
	d="
M124.494278,45.155777 
	C124.056572,43.713501 124.016495,42.236622 123.968605,40.320801 
	C128.064178,39.009830 132.167557,38.137794 136.974564,37.388115 
	C139.469513,37.692810 141.260834,37.875145 143.042114,38.420029 
	C143.012634,39.506516 142.993195,40.230457 142.973740,40.954403 
	C139.441376,41.753681 135.908997,42.552959 132.113937,43.620514 
	C129.531464,44.299591 127.211678,44.710381 124.494278,45.155777 
z"/>
<path fill="#F15255" opacity="1.000000" stroke="none" 
	d="
M143.357056,40.946480 
	C142.993195,40.230457 143.012634,39.506516 143.386246,38.406445 
	C144.832123,37.737671 145.923828,37.445023 147.015533,37.152374 
	C148.058334,37.092022 149.101151,37.031673 150.857864,37.153473 
	C154.054901,37.904327 156.538040,38.473038 159.021164,39.041748 
	C155.974991,39.370049 152.928802,39.698345 149.438812,40.047749 
	C147.243454,40.358753 145.491913,40.648655 143.357056,40.946480 
z"/>
<path fill="#F26367" opacity="1.000000" stroke="none" 
	d="
M159.435913,39.040943 
	C156.538040,38.473038 154.054901,37.904327 151.249207,37.120148 
	C156.387619,37.195904 161.848633,37.487133 167.682327,38.230701 
	C168.052078,38.862431 168.049118,39.041813 168.046173,39.221199 
	C166.966339,39.204067 165.886490,39.186939 164.403381,39.209938 
	C162.616959,39.180092 161.233826,39.110115 159.435913,39.040943 
z"/>
<path fill="#F15255" opacity="1.000000" stroke="none" 
	d="
M168.355408,39.403252 
	C168.049118,39.041813 168.052078,38.862431 168.065887,38.414185 
	C172.802277,39.098076 177.527802,40.050827 182.636200,41.073845 
	C182.523682,41.396168 182.028320,41.648228 181.257294,41.956436 
	C176.875961,41.203491 172.770309,40.394402 168.355408,39.403252 
z"/>
<path fill="#F26367" opacity="1.000000" stroke="none" 
	d="
M146.622910,37.086037 
	C145.923828,37.445023 144.832123,37.737671 143.396301,38.043900 
	C141.260834,37.875145 139.469513,37.692810 137.348663,37.325172 
	C140.089523,37.099808 143.159912,37.059750 146.622910,37.086037 
z"/>
<path fill="#F26438" opacity="1.000000" stroke="none" 
	d="
M197.971710,45.524784 
	C196.599579,45.432205 195.068054,45.008423 193.273087,44.359291 
	C194.610535,44.487156 196.211411,44.840366 197.971710,45.524784 
z"/>
<path fill="#F4734D" opacity="1.000000" stroke="none" 
	d="
M115.055222,132.393799 
	C116.157997,132.471146 117.416580,132.858063 118.833939,133.544846 
	C117.732162,133.464264 116.471603,133.083817 115.055222,132.393799 
z"/>
<path fill="#4787A7" opacity="1.000000" stroke="none" 
	d="
M178.609558,186.943787 
	C178.441833,187.766891 177.972794,188.738373 177.181061,189.830139 
	C177.341690,188.997665 177.824966,188.044907 178.609558,186.943787 
z"/>
<path fill="#F68D49" opacity="1.000000" stroke="none" 
	d="
M85.580460,59.898338 
	C85.449593,60.483864 84.969734,61.115059 84.187408,61.835632 
	C84.333786,61.264679 84.782623,60.604340 85.580460,59.898338 
z"/>
<path fill="#478CA1" opacity="1.000000" stroke="none" 
	d="
M155.330872,197.928543 
	C154.992020,197.941010 154.992081,197.519775 154.990631,197.309174 
	C155.912460,196.847031 156.835754,196.595490 157.920059,196.590195 
	C157.277283,197.196320 156.473495,197.556198 155.330872,197.928543 
z"/>
<path fill="#478CA1" opacity="1.000000" stroke="none" 
	d="
M162.639069,195.881500 
	C162.173599,196.202835 161.349411,196.556595 160.180893,196.922607 
	C160.651154,196.594543 161.465744,196.254242 162.639069,195.881500 
z"/>
<path fill="#F0987B" opacity="1.000000" stroke="none" 
	d="
M115.095467,170.338745 
	C115.648293,170.266327 116.140167,170.532639 116.887405,170.913101 
	C116.440025,170.910675 115.737274,170.794083 115.095467,170.338745 
z"/>
<path fill="#488EA0" opacity="1.000000" stroke="none" 
	d="
M212.146210,139.524475 
	C211.836914,139.418884 211.485428,138.997849 211.041779,138.310089 
	C211.334412,138.431915 211.719208,138.820480 212.146210,139.524475 
z"/>
<path fill="#4584A9" opacity="1.000000" stroke="none" 
	d="
M169.690506,194.020172 
	C169.489334,194.328369 168.973831,194.581039 168.170044,194.873138 
	C168.379898,194.596588 168.878021,194.280609 169.690506,194.020172 
z"/>
<path fill="#4584A9" opacity="1.000000" stroke="none" 
	d="
M172.674561,192.899811 
	C172.475479,193.169266 171.955307,193.489288 171.133240,193.871246 
	C171.338715,193.605591 171.846085,193.277969 172.674561,192.899811 
z"/>
<path fill="#4584A9" opacity="1.000000" stroke="none" 
	d="
M174.644577,191.900635 
	C174.456894,192.165009 173.959900,192.480011 173.169067,192.853149 
	C173.361908,192.591263 173.848587,192.271271 174.644577,191.900635 
z"/>
<path fill="#F37038" opacity="1.000000" stroke="none" 
	d="
M219.286560,105.035255 
	C219.373230,104.712372 219.704620,104.296822 220.310089,103.824951 
	C220.233200,104.159950 219.882233,104.551270 219.286560,105.035255 
z"/>
<path fill="#F04B44" opacity="1.000000" stroke="none" 
	d="
M154.951660,108.652145 
	C154.528580,108.748985 153.985107,108.554482 153.238678,108.148766 
	C153.634232,108.078636 154.232758,108.219711 154.951660,108.652145 
z"/>
<path fill="#F68D49" opacity="1.000000" stroke="none" 
	d="
M93.634453,52.914314 
	C93.963242,53.051567 93.974945,53.240799 93.997849,53.714157 
	C93.530052,53.993980 93.051071,53.989681 92.213631,53.965549 
	C92.342575,53.619236 92.829971,53.292763 93.634453,52.914314 
z"/>
<path fill="#EE3A3D" opacity="1.000000" stroke="none" 
	d="
M135.293182,77.059280 
	C135.345978,76.719330 135.641861,76.299530 136.199905,75.809517 
	C136.153473,76.152679 135.844864,76.566055 135.293182,77.059280 
z"/>
<path fill="#F15737" opacity="1.000000" stroke="none" 
	d="
M179.999908,76.362198 
	C180.251328,76.249252 180.595428,76.382965 180.981903,76.686523 
	C180.713730,76.773872 180.403168,76.691360 179.999908,76.362198 
z"/>
<path fill="#F26438" opacity="1.000000" stroke="none" 
	d="
M200.013245,46.682526 
	C199.781891,46.826637 199.521408,46.655113 199.131714,46.268867 
	C199.304321,46.196903 199.631546,46.301155 200.013245,46.682526 
z"/>
<path fill="#478CA1" opacity="1.000000" stroke="none" 
	d="
M164.063171,195.691254 
	C163.957138,195.927032 163.740189,195.927094 163.198151,195.904266 
	C163.232819,195.739441 163.592545,195.597488 164.063171,195.691254 
z"/>
<path fill="#55BD7A" opacity="1.000000" stroke="none" 
	d="
M81.064316,169.579819 
	C80.876472,169.674484 80.611954,169.488144 80.197937,169.094513 
	C80.336960,169.059280 80.650032,169.196472 81.064316,169.579819 
z"/>
<path fill="#EE3A3D" opacity="1.000000" stroke="none" 
	d="
M137.002960,94.556885 
	C136.799484,94.669807 136.588181,94.514778 136.334717,94.120842 
	C136.552032,93.956871 136.786240,94.092537 137.002960,94.556885 
z"/>
<path fill="#F04B44" opacity="1.000000" stroke="none" 
	d="
M151.032104,106.612823 
	C150.818359,106.793724 150.521393,106.653236 150.072952,106.278580 
	C150.235062,106.187820 150.577545,106.270164 151.032104,106.612823 
z"/>
<path fill="#F04B44" opacity="1.000000" stroke="none" 
	d="
M152.989380,107.656891 
	C152.730530,107.851761 152.441803,107.692429 152.023987,107.279907 
	C152.213882,107.183762 152.568741,107.275749 152.989380,107.656891 
z"/>
<path fill="#EC263E" opacity="1.000000" stroke="none" 
	d="
M108.792953,55.158447 
	C111.019295,53.591721 113.068916,52.315331 115.424835,50.932587 
	C117.128563,53.038090 119.473351,55.139320 119.746964,57.482407 
	C120.589882,64.700699 120.696968,72.009201 120.986595,79.286758 
	C121.375122,89.049400 121.714951,98.814667 121.959846,108.581718 
	C122.008698,110.530273 121.536346,112.491905 121.070206,114.816895 
	C119.424522,114.552040 118.012962,113.917801 116.304451,113.130379 
	C112.518211,109.797920 109.028923,106.618645 105.256531,103.276093 
	C102.342476,97.973991 99.711525,92.835159 96.959625,87.341385 
	C96.886131,82.935165 96.933586,78.883904 96.982224,74.414757 
	C100.861008,67.814178 104.738625,61.631481 108.792953,55.158447 
z"/>
</svg>